<?xml version="1.0" encoding="UTF-8" standalone="no"?>
<svg
   width="24"
   height="24"
   viewBox="0 0 24 24"
   version="1.1"
   id="svg1"
   sodipodi:docname="Icon_EditScript.svg"
   inkscape:version="1.4 (86a8ad7, 2024-10-11)"
   xmlns:inkscape="http://www.inkscape.org/namespaces/inkscape"
   xmlns:sodipodi="http://sodipodi.sourceforge.net/DTD/sodipodi-0.dtd"
   xmlns="http://www.w3.org/2000/svg"
   xmlns:svg="http://www.w3.org/2000/svg">
  <defs
     id="defs1" />
  <sodipodi:namedview
     id="namedview1"
     pagecolor="#505050"
     bordercolor="#eeeeee"
     borderopacity="1"
     inkscape:showpageshadow="0"
     inkscape:pageopacity="0"
     inkscape:pagecheckerboard="0"
     inkscape:deskcolor="#505050"
     inkscape:zoom="78.916667"
     inkscape:cx="12.006336"
     inkscape:cy="12"
     inkscape:window-width="5120"
     inkscape:window-height="2089"
     inkscape:window-x="1192"
     inkscape:window-y="-8"
     inkscape:window-maximized="1"
     inkscape:current-layer="svg1" />
  <path
     fill="currentColor"
     d="M9 15v-4.25l9.175-9.175q.3-.3.675-.45t.75-.15q.4 0 .763.15t.662.45L22.425 3q.275.3.425.663T23 4.4t-.137.738t-.438.662L13.25 15zm10.6-9.2l1.425-1.4l-1.4-1.4L18.2 4.4zM5 21q-.825 0-1.412-.587T3 19V5q0-.825.588-1.412T5 3h8.925L7 9.925V17h7.05L21 10.05V19q0 .825-.587 1.413T19 21z"
     id="path1"
     style="fill:#ffffff;fill-opacity:1" />
</svg>
